<svg version="1.1" xmlns="http://www.w3.org/2000/svg" xmlns:xlink="http://www.w3.org/1999/xlink" width="2004" height="1961"><defs></defs><g><g transform="translate(-470,-58) scale(1,1)"><rect fill="#C0C0C0" stroke="none" x="1098" y="1299" width="385" height="355" opacity="0.2"></rect></g><g transform="translate(-470,-58) scale(1,1)"><rect fill="#ffffff" stroke="none" x="1091" y="1292" width="385" height="355"></rect></g><g transform="translate(-470,-58) scale(1,1)"><path fill="none" stroke="#000000" d="M 1091 1292 L 1476 1292 L 1476 1647 L 1091 1647 L 1091 1292 Z Z" stroke-miterlimit="10"></path></g><g transform="translate(-470,-58) scale(1,1)"><path fill="none" stroke="#000000" d="M 1091 1317 L 1476 1317" stroke-miterlimit="10"></path></g><g transform="translate(-470,-58) scale(1,1)"><path fill="none" stroke="#000000" d="M 1091 1610 L 1476 1610" stroke-miterlimit="10"></path></g><g transform="translate(-470,-58) scale(1,1)"><g><path fill="none" stroke="none"></path><text fill="#000000" stroke="none" font-family="Arial" font-size="13px" font-style="normal" font-weight="bold" text-decoration="none" x="1228.5" y="1311.5">ExtendedDateTime</text></g></g><g transform="translate(-470,-58) scale(1,1)"><g><path fill="none" stroke="none"></path><text fill="#000000" stroke="none" font-family="Arial" font-size="13px" font-style="normal" font-weight="normal" text-decoration="none" x="1096" y="1334.5">+Year: int</text></g></g><g transform="translate(-470,-58) scale(1,1)"><g><path fill="none" stroke="none"></path><text fill="#000000" stroke="none" font-family="Arial" font-size="13px" font-style="normal" font-weight="normal" text-decoration="none" x="1096" y="1349.5">+Month: int</text></g></g><g transform="translate(-470,-58) scale(1,1)"><g><path fill="none" stroke="none"></path><text fill="#000000" stroke="none" font-family="Arial" font-size="13px" font-style="normal" font-weight="normal" text-decoration="none" x="1096" y="1364.5">+Day: int</text></g></g><g transform="translate(-470,-58) scale(1,1)"><g><path fill="none" stroke="none"></path><text fill="#000000" stroke="none" font-family="Arial" font-size="13px" font-style="normal" font-weight="normal" text-decoration="none" x="1096" y="1379.5">+Hour: int</text></g></g><g transform="translate(-470,-58) scale(1,1)"><g><path fill="none" stroke="none"></path><text fill="#000000" stroke="none" font-family="Arial" font-size="13px" font-style="normal" font-weight="normal" text-decoration="none" x="1096" y="1394.5">+Minute: int</text></g></g><g transform="translate(-470,-58) scale(1,1)"><g><path fill="none" stroke="none"></path><text fill="#000000" stroke="none" font-family="Arial" font-size="13px" font-style="normal" font-weight="normal" text-decoration="none" x="1096" y="1409.5">+Second: int</text></g></g><g transform="translate(-470,-58) scale(1,1)"><g><path fill="none" stroke="none"></path><text fill="#000000" stroke="none" font-family="Arial" font-size="13px" font-style="normal" font-weight="normal" text-decoration="none" x="1096" y="1424.5">+TimeZone: TimeZone</text></g></g><g transform="translate(-470,-58) scale(1,1)"><g><path fill="none" stroke="none"></path><text fill="#000000" stroke="none" font-family="Arial" font-size="13px" font-style="normal" font-weight="normal" text-decoration="none" x="1096" y="1439.5">+YearFlags: ExtendedDateTimeFlags</text></g></g><g transform="translate(-470,-58) scale(1,1)"><g><path fill="none" stroke="none"></path><text fill="#000000" stroke="none" font-family="Arial" font-size="13px" font-style="normal" font-weight="normal" text-decoration="none" x="1096" y="1454.5">+MonthFlags: ExtendedDateTimeFlags</text></g></g><g transform="translate(-470,-58) scale(1,1)"><g><path fill="none" stroke="none"></path><text fill="#000000" stroke="none" font-family="Arial" font-size="13px" font-style="normal" font-weight="normal" text-decoration="none" x="1096" y="1469.5">+DayFlags: ExtendedDateTimeFlags</text></g></g><g transform="translate(-470,-58) scale(1,1)"><g><path fill="none" stroke="none"></path><text fill="#000000" stroke="none" font-family="Arial" font-size="13px" font-style="normal" font-weight="normal" text-decoration="none" x="1096" y="1484.5">+Unknown: ExtendedDateTime</text></g></g><g transform="translate(-470,-58) scale(1,1)"><g><path fill="none" stroke="none"></path><text fill="#000000" stroke="none" font-family="Arial" font-size="13px" font-style="normal" font-weight="normal" text-decoration="none" x="1096" y="1499.5">+Open: ExtendedDateTime</text></g></g><g transform="translate(-470,-58) scale(1,1)"><g><path fill="none" stroke="none"></path><text fill="#000000" stroke="none" font-family="Arial" font-size="13px" font-style="normal" font-weight="normal" text-decoration="none" x="1096" y="1514.5">+IsUnknown: bool</text></g></g><g transform="translate(-470,-58) scale(1,1)"><g><path fill="none" stroke="none"></path><text fill="#000000" stroke="none" font-family="Arial" font-size="13px" font-style="normal" font-weight="normal" text-decoration="none" x="1096" y="1529.5">+IsOpen: bool</text></g></g><g transform="translate(-470,-58) scale(1,1)"><g><path fill="none" stroke="none"></path><text fill="#000000" stroke="none" font-family="Arial" font-size="13px" font-style="normal" font-weight="normal" text-decoration="none" x="1096" y="1544.5">+Season: Season</text></g></g><g transform="translate(-470,-58) scale(1,1)"><g><path fill="none" stroke="none"></path><text fill="#000000" stroke="none" font-family="Arial" font-size="13px" font-style="normal" font-weight="normal" text-decoration="none" x="1096" y="1559.5">+YearExponent: int</text></g></g><g transform="translate(-470,-58) scale(1,1)"><g><path fill="none" stroke="none"></path><text fill="#000000" stroke="none" font-family="Arial" font-size="13px" font-style="normal" font-weight="normal" text-decoration="none" x="1096" y="1574.5">+YearPrecision: int</text></g></g><g transform="translate(-470,-58) scale(1,1)"><g><path fill="none" stroke="none"></path><text fill="#000000" stroke="none" font-family="Arial" font-size="13px" font-style="normal" font-weight="normal" text-decoration="none" x="1096" y="1589.5">+SeasonQualifier: string</text></g></g><g transform="translate(-470,-58) scale(1,1)"><g><path fill="none" stroke="none"></path><text fill="#000000" stroke="none" font-family="Arial" font-size="13px" font-style="normal" font-weight="normal" text-decoration="none" x="1096" y="1604.5">+SeasonFlags: ExtendedDateTimeFlags</text></g></g><g transform="translate(-470,-58) scale(1,1)"><g><path fill="none" stroke="none"></path><text fill="#000000" stroke="none" font-family="Arial" font-size="13px" font-style="normal" font-weight="normal" text-decoration="none" x="1096" y="1627.5">+ExtendedDateTime(string extendedDateTimeString)</text></g></g><g transform="translate(-470,-58) scale(1,1)"><g><path fill="none" stroke="none"></path><text fill="#000000" stroke="none" font-family="Arial" font-size="13px" font-style="normal" font-weight="normal" text-decoration="none" x="1096" y="1642.5">+ToString(): string</text></g></g><g transform="translate(-470,-58) scale(1,1)"><rect fill="#C0C0C0" stroke="none" x="746" y="546" width="393" height="100" opacity="0.2"></rect></g><g transform="translate(-470,-58) scale(1,1)"><rect fill="#ffffff" stroke="none" x="739" y="539" width="393" height="100"></rect></g><g transform="translate(-470,-58) scale(1,1)"><path fill="none" stroke="#000000" d="M 739 539 L 1132 539 L 1132 639 L 739 639 L 739 539 Z Z" stroke-miterlimit="10"></path></g><g transform="translate(-470,-58) scale(1,1)"><path fill="none" stroke="#000000" d="M 739 564 L 1132 564" stroke-miterlimit="10"></path></g><g transform="translate(-470,-58) scale(1,1)"><path fill="none" stroke="#000000" d="M 739 602 L 1132 602" stroke-miterlimit="10"></path></g><g transform="translate(-470,-58) scale(1,1)"><g><path fill="none" stroke="none"></path><text fill="#000000" stroke="none" font-family="Arial" font-size="13px" font-style="normal" font-weight="bold" text-decoration="none" x="860.5" y="558.5">ExtendedDateTimeInterval</text></g></g><g transform="translate(-470,-58) scale(1,1)"><g><path fill="none" stroke="none"></path><text fill="#000000" stroke="none" font-family="Arial" font-size="13px" font-style="normal" font-weight="normal" text-decoration="none" x="744" y="581.5">+Start: IExtendedDateTimeType</text></g></g><g transform="translate(-470,-58) scale(1,1)"><g><path fill="none" stroke="none"></path><text fill="#000000" stroke="none" font-family="Arial" font-size="13px" font-style="normal" font-weight="normal" text-decoration="none" x="744" y="596.5">+End: IExtendedDateTimeType</text></g></g><g transform="translate(-470,-58) scale(1,1)"><g><path fill="none" stroke="none"></path><text fill="#000000" stroke="none" font-family="Arial" font-size="13px" font-style="normal" font-weight="normal" text-decoration="none" x="744" y="619.5">+ExtendedDateTimeInterval(string extendedDateTimeIntervalString)</text></g></g><g transform="translate(-470,-58) scale(1,1)"><g><path fill="none" stroke="none"></path><text fill="#000000" stroke="none" font-family="Arial" font-size="13px" font-style="normal" font-weight="normal" text-decoration="none" x="744" y="634.5">+ToString(): string</text></g></g><g transform="translate(-470,-58) scale(1,1)"><rect fill="#C0C0C0" stroke="none" x="1055" y="75" width="515" height="57" opacity="0.2"></rect></g><g transform="translate(-470,-58) scale(1,1)"><rect fill="#ffffff" stroke="none" x="1048" y="68" width="515" height="57"></rect></g><g transform="translate(-470,-58) scale(1,1)"><path fill="none" stroke="#000000" d="M 1048 68 L 1563 68 L 1563 125 L 1048 125 L 1048 68 Z Z" stroke-miterlimit="10"></path></g><g transform="translate(-470,-58) scale(1,1)"><path fill="none" stroke="#000000" d="M 1048 93 L 1563 93" stroke-miterlimit="10"></path></g><g transform="translate(-470,-58) scale(1,1)"><path fill="none" stroke="#000000" d="M 1048 103 L 1563 103" stroke-miterlimit="10"></path></g><g transform="translate(-470,-58) scale(1,1)"><g><path fill="none" stroke="none"></path><text fill="#000000" stroke="none" font-family="Arial" font-size="13px" font-style="normal" font-weight="bold" text-decoration="none" x="1211" y="87.5">ExtendedDateTimeFormatParser</text></g></g><g transform="translate(-470,-58) scale(1,1)"><g><path fill="none" stroke="none"></path><text fill="#000000" stroke="none" font-family="Arial" font-size="13px" font-style="normal" font-weight="normal" text-decoration="none" x="1053" y="120.5">+Parse(string extendedDateTimeFormattedString): IExtendedDateTimeIndependentType</text></g></g><g transform="translate(-470,-58) scale(1,1)"><rect fill="#C0C0C0" stroke="none" x="491" y="1148" width="333" height="72" opacity="0.2"></rect></g><g transform="translate(-470,-58) scale(1,1)"><rect fill="#ffffff" stroke="none" x="484" y="1141" width="333" height="72"></rect></g><g transform="translate(-470,-58) scale(1,1)"><path fill="none" stroke="#000000" d="M 484 1141 L 817 1141 L 817 1213 L 484 1213 L 484 1141 Z Z" stroke-miterlimit="10"></path></g><g transform="translate(-470,-58) scale(1,1)"><path fill="none" stroke="#000000" d="M 484 1166 L 817 1166" stroke-miterlimit="10"></path></g><g transform="translate(-470,-58) scale(1,1)"><path fill="none" stroke="#000000" d="M 484 1189 L 817 1189" stroke-miterlimit="10"></path></g><g transform="translate(-470,-58) scale(1,1)"><g><path fill="none" stroke="none"></path><text fill="#000000" stroke="none" font-family="Arial" font-size="13px" font-style="normal" font-weight="bold" text-decoration="none" x="558" y="1160.5">ExtendedDateTimeExclusiveSet</text></g></g><g transform="translate(-470,-58) scale(1,1)"><g><path fill="none" stroke="none"></path><text fill="#000000" stroke="none" font-family="Arial" font-size="13px" font-style="normal" font-weight="normal" text-decoration="none" x="489" y="1183.5">+Items: IList&lt;IExtendedDateTimeSetType&gt;</text></g></g><g transform="translate(-470,-58) scale(1,1)"><g><path fill="none" stroke="none"></path><text fill="#000000" stroke="none" font-family="Arial" font-size="13px" font-style="normal" font-weight="normal" text-decoration="none" x="489" y="1206.5">+ToString(): string</text></g></g><g transform="translate(-470,-58) scale(1,1)"><rect fill="#C0C0C0" stroke="none" x="1723" y="980" width="296" height="70" opacity="0.2"></rect></g><g transform="translate(-470,-58) scale(1,1)"><rect fill="#ffffff" stroke="none" x="1716" y="973" width="296" height="70"></rect></g><g transform="translate(-470,-58) scale(1,1)"><path fill="none" stroke="#000000" d="M 1716 973 L 2012 973 L 2012 1043 L 1716 1043 L 1716 973 Z Z" stroke-miterlimit="10"></path></g><g transform="translate(-470,-58) scale(1,1)"><path fill="none" stroke="#000000" d="M 1716 998 L 2012 998" stroke-miterlimit="10"></path></g><g transform="translate(-470,-58) scale(1,1)"><path fill="none" stroke="#000000" d="M 1716 1021 L 2012 1021" stroke-miterlimit="10"></path></g><g transform="translate(-470,-58) scale(1,1)"><g><path fill="none" stroke="none"></path><text fill="#000000" stroke="none" font-family="Arial" font-size="13px" font-style="normal" font-weight="bold" text-decoration="none" x="1774.5" y="992.5">ExtendedDateTimeInclusiveSet</text></g></g><g transform="translate(-470,-58) scale(1,1)"><g><path fill="none" stroke="none"></path><text fill="#000000" stroke="none" font-family="Arial" font-size="13px" font-style="normal" font-weight="normal" text-decoration="none" x="1721" y="1015.5">+Items: IList&lt;IExtendedDateTimeSetType&gt;</text></g></g><g transform="translate(-470,-58) scale(1,1)"><g><path fill="none" stroke="none"></path><text fill="#000000" stroke="none" font-family="Arial" font-size="13px" font-style="normal" font-weight="normal" text-decoration="none" x="1721" y="1038.5">+ToString(): string</text></g></g><g transform="translate(-470,-58) scale(1,1)"><path fill="#ffffff" stroke="none" d="M 2156 716 L 2301 716 L 2311 726 L 2311 752 L 2156 752 L 2156 716"></path></g><g transform="translate(-470,-58) scale(1,1)"><path fill="none" stroke="#000000" d="M 2156 716 L 2301 716 L 2311 726 L 2311 752 L 2156 752 L 2156 716 L 2156 716" stroke-miterlimit="10"></path></g><g transform="translate(-470,-58) scale(1,1)"><path fill="none" stroke="#000000" d="M 2301 716 L 2301 726 L 2311 726 L 2301 716" stroke-miterlimit="10"></path></g><g transform="translate(-470,-58) scale(1,1)"><g><path fill="none" stroke="none"></path><text fill="#000000" stroke="none" font-family="Arial" font-size="13px" font-style="normal" font-weight="normal" text-decoration="none" x="2161" y="734">The ".." operator</text><text fill="#000000" stroke="none" font-family="Arial" font-size="13px" font-style="normal" font-weight="normal" text-decoration="none" x="2161" y="747">represents a range.</text></g></g><g transform="translate(-470,-58) scale(1,1)"><rect fill="#C0C0C0" stroke="none" x="1951" y="584" width="272" height="85" opacity="0.2"></rect></g><g transform="translate(-470,-58) scale(1,1)"><rect fill="#ffffff" stroke="none" x="1944" y="577" width="272" height="85"></rect></g><g transform="translate(-470,-58) scale(1,1)"><path fill="none" stroke="#000000" d="M 1944 577 L 2216 577 L 2216 662 L 1944 662 L 1944 577 Z Z" stroke-miterlimit="10"></path></g><g transform="translate(-470,-58) scale(1,1)"><path fill="none" stroke="#000000" d="M 1944 602 L 2216 602" stroke-miterlimit="10"></path></g><g transform="translate(-470,-58) scale(1,1)"><path fill="none" stroke="#000000" d="M 1944 640 L 2216 640" stroke-miterlimit="10"></path></g><g transform="translate(-470,-58) scale(1,1)"><g><path fill="none" stroke="none"></path><text fill="#000000" stroke="none" font-family="Arial" font-size="13px" font-style="normal" font-weight="bold" text-decoration="none" x="2006.5" y="596.5">ExtendedDateTimeRange</text></g></g><g transform="translate(-470,-58) scale(1,1)"><g><path fill="none" stroke="none"></path><text fill="#000000" stroke="none" font-family="Arial" font-size="13px" font-style="normal" font-weight="normal" text-decoration="none" x="1949" y="619.5">+Start: ISingleExtendedDateTimeType</text></g></g><g transform="translate(-470,-58) scale(1,1)"><g><path fill="none" stroke="none"></path><text fill="#000000" stroke="none" font-family="Arial" font-size="13px" font-style="normal" font-weight="normal" text-decoration="none" x="1949" y="634.5">+End: ISingleExtendedDateTimeType</text></g></g><g transform="translate(-470,-58) scale(1,1)"><g><path fill="none" stroke="none"></path><text fill="#000000" stroke="none" font-family="Arial" font-size="13px" font-style="normal" font-weight="normal" text-decoration="none" x="1949" y="657.5">+ToString(): string</text></g></g><g transform="translate(-470,-58) scale(1,1)"><path fill="none" stroke="#000000" d="M 2156 734 L 1988 734 L 1988 662" stroke-miterlimit="10" stroke-dasharray="3"></path></g><g transform="translate(-470,-58) scale(1,1)"><path fill="#ffffff" stroke="none" d="M 2060 856 L 2197 856 L 2207 866 L 2207 911 L 2060 911 L 2060 856"></path></g><g transform="translate(-470,-58) scale(1,1)"><path fill="none" stroke="#000000" d="M 2060 856 L 2197 856 L 2207 866 L 2207 911 L 2060 911 L 2060 856 L 2060 856" stroke-miterlimit="10"></path></g><g transform="translate(-470,-58) scale(1,1)"><path fill="none" stroke="#000000" d="M 2197 856 L 2197 866 L 2207 866 L 2197 856" stroke-miterlimit="10"></path></g><g transform="translate(-470,-58) scale(1,1)"><g><path fill="none" stroke="none"></path><text fill="#000000" stroke="none" font-family="Arial" font-size="13px" font-style="normal" font-weight="normal" text-decoration="none" x="2065" y="874">Represents multiple</text><text fill="#000000" stroke="none" font-family="Arial" font-size="13px" font-style="normal" font-weight="normal" text-decoration="none" x="2065" y="887">dates (values between</text><text fill="#000000" stroke="none" font-family="Arial" font-size="13px" font-style="normal" font-weight="normal" text-decoration="none" x="2065" y="900">'{' and '}')</text></g></g><g transform="translate(-470,-58) scale(1,1)"><path fill="none" stroke="#000000" d="M 1996 973 L 1996 901 L 2060 901" stroke-miterlimit="10" stroke-dasharray="3"></path></g><g transform="translate(-470,-58) scale(1,1)"><path fill="#ffffff" stroke="none" d="M 644 977 L 749 977 L 759 987 L 759 1039 L 644 1039 L 644 977"></path></g><g transform="translate(-470,-58) scale(1,1)"><path fill="none" stroke="#000000" d="M 644 977 L 749 977 L 759 987 L 759 1039 L 644 1039 L 644 977 L 644 977" stroke-miterlimit="10"></path></g><g transform="translate(-470,-58) scale(1,1)"><path fill="none" stroke="#000000" d="M 749 977 L 749 987 L 759 987 L 749 977" stroke-miterlimit="10"></path></g><g transform="translate(-470,-58) scale(1,1)"><g><path fill="none" stroke="none"></path><text fill="#000000" stroke="none" font-family="Arial" font-size="13px" font-style="normal" font-weight="normal" text-decoration="none" x="649" y="995">Represents "One</text><text fill="#000000" stroke="none" font-family="Arial" font-size="13px" font-style="normal" font-weight="normal" text-decoration="none" x="649" y="1008">of a Set" (Values</text><text fill="#000000" stroke="none" font-family="Arial" font-size="13px" font-style="normal" font-weight="normal" text-decoration="none" x="649" y="1021">between '[' and ']')</text></g></g><g transform="translate(-470,-58) scale(1,1)"><path fill="none" stroke="#000000" d="M 674 1141 L 674 1040" stroke-miterlimit="10" stroke-dasharray="3"></path></g><g transform="translate(-470,-58) scale(1,1)"><rect fill="#C0C0C0" stroke="none" x="1395" y="1788" width="119" height="85" opacity="0.2"></rect></g><g transform="translate(-470,-58) scale(1,1)"><rect fill="#ffffff" stroke="none" x="1388" y="1781" width="119" height="85"></rect></g><g transform="translate(-470,-58) scale(1,1)"><path fill="none" stroke="#000000" d="M 1388 1781 L 1507 1781 L 1507 1866 L 1388 1866 L 1388 1781 Z Z" stroke-miterlimit="10"></path></g><g transform="translate(-470,-58) scale(1,1)"><path fill="none" stroke="#000000" d="M 1388 1806 L 1507 1806" stroke-miterlimit="10"></path></g><g transform="translate(-470,-58) scale(1,1)"><path fill="none" stroke="#000000" d="M 1388 1844 L 1507 1844" stroke-miterlimit="10"></path></g><g transform="translate(-470,-58) scale(1,1)"><g><path fill="none" stroke="none"></path><text fill="#000000" stroke="none" font-family="Arial" font-size="13px" font-style="normal" font-weight="bold" text-decoration="none" x="1419.5" y="1800.5">TimeZone</text></g></g><g transform="translate(-470,-58) scale(1,1)"><g><path fill="none" stroke="none"></path><text fill="#000000" stroke="none" font-family="Arial" font-size="13px" font-style="normal" font-weight="normal" text-decoration="none" x="1393" y="1823.5">+HourOffset: int</text></g></g><g transform="translate(-470,-58) scale(1,1)"><g><path fill="none" stroke="none"></path><text fill="#000000" stroke="none" font-family="Arial" font-size="13px" font-style="normal" font-weight="normal" text-decoration="none" x="1393" y="1838.5">+MinuteOffset: int</text></g></g><g transform="translate(-470,-58) scale(1,1)"><g><path fill="none" stroke="none"></path><text fill="#000000" stroke="none" font-family="Arial" font-size="13px" font-style="normal" font-weight="normal" text-decoration="none" x="1393" y="1861.5">+ToString(): string</text></g></g><g transform="translate(-470,-58) scale(1,1)"><path fill="none" stroke="#000000" d="M 1427 1780 L 1366 1648" stroke-miterlimit="10"></path></g><g transform="translate(-470,-58) scale(1,1)"><path fill="#000000" stroke="none" d="M 1374.0844068827557 1655.459381030223 L 1366 1648 L 1366.4419600187425 1658.9911178385928 L 1375.2288730310129 1667.97067606711"></path></g><g transform="translate(-470,-58) scale(1,1)"><path fill="none" stroke="#000000" d="M 1374.0844068827557 1655.459381030223 L 1366 1648 L 1366.4419600187425 1658.9911178385928 L 1375.2288730310129 1667.97067606711 L 1374.0844068827557 1655.459381030223" stroke-miterlimit="10"></path></g><g transform="translate(-470,-58) scale(1,1)"><path fill="#ffffff" stroke="none" d="M 708 424 L 826 424 L 836 434 L 836 475 L 708 475 L 708 424"></path></g><g transform="translate(-470,-58) scale(1,1)"><path fill="none" stroke="#000000" d="M 708 424 L 826 424 L 836 434 L 836 475 L 708 475 L 708 424 L 708 424" stroke-miterlimit="10"></path></g><g transform="translate(-470,-58) scale(1,1)"><path fill="none" stroke="#000000" d="M 826 424 L 826 434 L 836 434 L 826 424" stroke-miterlimit="10"></path></g><g transform="translate(-470,-58) scale(1,1)"><g><path fill="none" stroke="none"></path><text fill="#000000" stroke="none" font-family="Arial" font-size="13px" font-style="normal" font-weight="normal" text-decoration="none" x="713" y="442">ExtendedDateTime</text><text fill="#000000" stroke="none" font-family="Arial" font-size="13px" font-style="normal" font-weight="normal" text-decoration="none" x="713" y="455">strings delimited by</text><text fill="#000000" stroke="none" font-family="Arial" font-size="13px" font-style="normal" font-weight="normal" text-decoration="none" x="713" y="468">a '/'.</text></g></g><g transform="translate(-470,-58) scale(1,1)"><path fill="none" stroke="#000000" d="M 740 476 L 740 539" stroke-miterlimit="10" stroke-dasharray="3"></path></g><g transform="translate(-470,-58) scale(1,1)"><rect fill="#C0C0C0" stroke="none" x="1591" y="1744" width="164" height="76" opacity="0.2"></rect></g><g transform="translate(-470,-58) scale(1,1)"><rect fill="#ffffff" stroke="none" x="1584" y="1737" width="164" height="76"></rect></g><g transform="translate(-470,-58) scale(1,1)"><path fill="none" stroke="#000000" d="M 1584 1737 L 1748 1737 L 1748 1813 L 1584 1813 L 1584 1737 Z Z" stroke-miterlimit="10"></path></g><g transform="translate(-470,-58) scale(1,1)"><path fill="none" stroke="#000000" d="M 1584 1775 L 1748 1775" stroke-miterlimit="10"></path></g><g transform="translate(-470,-58) scale(1,1)"><g><path fill="none" stroke="none"></path><text fill="#000000" stroke="none" font-family="Arial" font-size="13px" font-style="normal" font-weight="normal" text-decoration="none" x="1623.5" y="1754.5">«enumeration»</text></g></g><g transform="translate(-470,-58) scale(1,1)"><g><path fill="none" stroke="none"></path><text fill="#000000" stroke="none" font-family="Arial" font-size="13px" font-style="normal" font-weight="bold" text-decoration="none" x="1595" y="1769.5">ExtendedDateTimeFlags</text></g></g><g transform="translate(-470,-58) scale(1,1)"><g><path fill="none" stroke="none"></path><text fill="#000000" stroke="none" font-family="Arial" font-size="13px" font-style="normal" font-weight="normal" text-decoration="none" x="1589" y="1792.5">Uncertain</text></g></g><g transform="translate(-470,-58) scale(1,1)"><g><path fill="none" stroke="none"></path><text fill="#000000" stroke="none" font-family="Arial" font-size="13px" font-style="normal" font-weight="normal" text-decoration="none" x="1589" y="1807.5">Approximate</text></g></g><g transform="translate(-470,-58) scale(1,1)"><path fill="#ffffff" stroke="none" d="M 832 1336 L 973 1336 L 983 1346 L 983 1450 L 832 1450 L 832 1336"></path></g><g transform="translate(-470,-58) scale(1,1)"><path fill="none" stroke="#000000" d="M 832 1336 L 973 1336 L 983 1346 L 983 1450 L 832 1450 L 832 1336 L 832 1336" stroke-miterlimit="10"></path></g><g transform="translate(-470,-58) scale(1,1)"><path fill="none" stroke="#000000" d="M 973 1336 L 973 1346 L 983 1346 L 973 1336" stroke-miterlimit="10"></path></g><g transform="translate(-470,-58) scale(1,1)"><g><path fill="none" stroke="none"></path><text fill="#000000" stroke="none" font-family="Arial" font-size="13px" font-style="normal" font-weight="normal" text-decoration="none" x="837" y="1354">"Unknown" and "Open"</text><text fill="#000000" stroke="none" font-family="Arial" font-size="13px" font-style="normal" font-weight="normal" text-decoration="none" x="837" y="1367">are static, empty</text><text fill="#000000" stroke="none" font-family="Arial" font-size="13px" font-style="normal" font-weight="normal" text-decoration="none" x="837" y="1380">singleton instances</text><text fill="#000000" stroke="none" font-family="Arial" font-size="13px" font-style="normal" font-weight="normal" text-decoration="none" x="837" y="1393">which set their</text><text fill="#000000" stroke="none" font-family="Arial" font-size="13px" font-style="normal" font-weight="normal" text-decoration="none" x="837" y="1406">respective read-only</text><text fill="#000000" stroke="none" font-family="Arial" font-size="13px" font-style="normal" font-weight="normal" text-decoration="none" x="837" y="1419">properties "IsUnknown"</text><text fill="#000000" stroke="none" font-family="Arial" font-size="13px" font-style="normal" font-weight="normal" text-decoration="none" x="837" y="1432">and "IsOpen" to true.</text></g></g><g transform="translate(-470,-58) scale(1,1)"><path fill="none" stroke="#000000" d="M 1617 1736 L 1477 1624" stroke-miterlimit="10"></path></g><g transform="translate(-470,-58) scale(1,1)"><path fill="#000000" stroke="none" d="M 1487.5653807116053 1627.0614915349943 L 1477 1624 L 1482.306050922054 1633.6356537719332 L 1494.1791138077467 1637.7432910461973"></path></g><g transform="translate(-470,-58) scale(1,1)"><path fill="none" stroke="#000000" d="M 1487.5653807116053 1627.0614915349943 L 1477 1624 L 1482.306050922054 1633.6356537719332 L 1494.1791138077467 1637.7432910461973 L 1487.5653807116053 1627.0614915349943" stroke-miterlimit="10"></path></g><g transform="translate(-470,-58) scale(1,1)"><rect fill="#C0C0C0" stroke="none" x="1219" y="1744" width="97" height="120" opacity="0.2"></rect></g><g transform="translate(-470,-58) scale(1,1)"><rect fill="#ffffff" stroke="none" x="1212" y="1737" width="97" height="120"></rect></g><g transform="translate(-470,-58) scale(1,1)"><path fill="none" stroke="#000000" d="M 1212 1737 L 1309 1737 L 1309 1857 L 1212 1857 L 1212 1737 Z Z" stroke-miterlimit="10"></path></g><g transform="translate(-470,-58) scale(1,1)"><path fill="none" stroke="#000000" d="M 1212 1775 L 1309 1775" stroke-miterlimit="10"></path></g><g transform="translate(-470,-58) scale(1,1)"><g><path fill="none" stroke="none"></path><text fill="#000000" stroke="none" font-family="Arial" font-size="13px" font-style="normal" font-weight="normal" text-decoration="none" x="1218" y="1754.5">«enumeration»</text></g></g><g transform="translate(-470,-58) scale(1,1)"><g><path fill="none" stroke="none"></path><text fill="#000000" stroke="none" font-family="Arial" font-size="13px" font-style="normal" font-weight="bold" text-decoration="none" x="1238.5" y="1769.5">Season</text></g></g><g transform="translate(-470,-58) scale(1,1)"><g><path fill="none" stroke="none"></path><text fill="#000000" stroke="none" font-family="Arial" font-size="13px" font-style="normal" font-weight="normal" text-decoration="none" x="1217" y="1792.5">Undefined</text></g></g><g transform="translate(-470,-58) scale(1,1)"><g><path fill="none" stroke="none"></path><text fill="#000000" stroke="none" font-family="Arial" font-size="13px" font-style="normal" font-weight="normal" text-decoration="none" x="1217" y="1807.5">Spring</text></g></g><g transform="translate(-470,-58) scale(1,1)"><g><path fill="none" stroke="none"></path><text fill="#000000" stroke="none" font-family="Arial" font-size="13px" font-style="normal" font-weight="normal" text-decoration="none" x="1217" y="1822.5">Summer</text></g></g><g transform="translate(-470,-58) scale(1,1)"><g><path fill="none" stroke="none"></path><text fill="#000000" stroke="none" font-family="Arial" font-size="13px" font-style="normal" font-weight="normal" text-decoration="none" x="1217" y="1837.5">Autumn</text></g></g><g transform="translate(-470,-58) scale(1,1)"><g><path fill="none" stroke="none"></path><text fill="#000000" stroke="none" font-family="Arial" font-size="13px" font-style="normal" font-weight="normal" text-decoration="none" x="1217" y="1852.5">Winter</text></g></g><g transform="translate(-470,-58) scale(1,1)"><path fill="none" stroke="#000000" d="M 1264 1736 L 1270 1648" stroke-miterlimit="10"></path></g><g transform="translate(-470,-58) scale(1,1)"><path fill="#000000" stroke="none" d="M 1273.5084625615389 1658.4254827444238 L 1270 1648 L 1265.108928123078 1657.8527872145287 L 1268.5034744609777 1669.949041238994"></path></g><g transform="translate(-470,-58) scale(1,1)"><path fill="none" stroke="#000000" d="M 1273.5084625615389 1658.4254827444238 L 1270 1648 L 1265.108928123078 1657.8527872145287 L 1268.5034744609777 1669.949041238994 L 1273.5084625615389 1658.4254827444238" stroke-miterlimit="10"></path></g><g transform="translate(-470,-58) scale(1,1)"><path fill="#ffffff" stroke="none" d="M 480 1677 L 769 1677 L 779 1687 L 779 1752 L 480 1752 L 480 1677"></path></g><g transform="translate(-470,-58) scale(1,1)"><path fill="none" stroke="#000000" d="M 480 1677 L 769 1677 L 779 1687 L 779 1752 L 480 1752 L 480 1677 L 480 1677" stroke-miterlimit="10"></path></g><g transform="translate(-470,-58) scale(1,1)"><path fill="none" stroke="#000000" d="M 769 1677 L 769 1687 L 779 1687 L 769 1677" stroke-miterlimit="10"></path></g><g transform="translate(-470,-58) scale(1,1)"><g><path fill="none" stroke="none"></path><text fill="#000000" stroke="none" font-family="Arial" font-size="13px" font-style="normal" font-weight="normal" text-decoration="none" x="485" y="1695">ToExclusiveSet() converts an unspecified date into</text><text fill="#000000" stroke="none" font-family="Arial" font-size="13px" font-style="normal" font-weight="normal" text-decoration="none" x="485" y="1708">a exclusive set (e.g. 1999-uu-uu =&gt;</text><text fill="#000000" stroke="none" font-family="Arial" font-size="13px" font-style="normal" font-weight="normal" text-decoration="none" x="485" y="1721">[1999-01-01..1999-12-31] (Correct day is</text><text fill="#000000" stroke="none" font-family="Arial" font-size="13px" font-style="normal" font-weight="normal" text-decoration="none" x="485" y="1734">calculated)).</text></g></g><g transform="translate(-470,-58) scale(1,1)"><path fill="none" stroke="#000000" d="M 985 1409 L 1090 1430" stroke-miterlimit="10" stroke-dasharray="3"></path></g><g transform="translate(-470,-58) scale(1,1)"><path fill="#C0C0C0" stroke="none" d="M 1459 643.5 C 1459 637.1487248 1464.1487248 632 1470.5 632 C 1476.8512752 632 1482 637.1487248 1482 643.5 C 1482 649.8512752 1476.8512752 655 1470.5 655 C 1464.1487248 655 1459 649.8512752 1459 643.5 Z" opacity="0.2"></path></g><g transform="translate(-470,-58) scale(1,1)"><path fill="#ffffff" stroke="none" d="M 1452 636.5 C 1452 630.1487248 1457.1487248 625 1463.5 625 C 1469.8512752 625 1475 630.1487248 1475 636.5 C 1475 642.8512752 1469.8512752 648 1463.5 648 C 1457.1487248 648 1452 642.8512752 1452 636.5 Z"></path></g><g transform="translate(-470,-58) scale(1,1)"><path fill="none" stroke="#000000" d="M 1452 636.5 C 1452 630.1487248 1457.1487248 625 1463.5 625 C 1469.8512752 625 1475 630.1487248 1475 636.5 C 1475 642.8512752 1469.8512752 648 1463.5 648 C 1457.1487248 648 1452 642.8512752 1452 636.5 Z" stroke-miterlimit="10"></path></g><g transform="translate(-470,-58) scale(1,1)"><g><path fill="none" stroke="none"></path><text fill="#000000" stroke="none" font-family="Arial" font-size="13px" font-style="normal" font-weight="bold" text-decoration="none" x="1393" y="667.5">IExtendedDateTimeType</text></g></g><g transform="translate(-470,-58) scale(1,1)"><path fill="#ffffff" stroke="none" d="M 1612 1372 L 1853 1372 L 1863 1382 L 1863 1451 L 1612 1451 L 1612 1372"></path></g><g transform="translate(-470,-58) scale(1,1)"><path fill="none" stroke="#000000" d="M 1612 1372 L 1853 1372 L 1863 1382 L 1863 1451 L 1612 1451 L 1612 1372 L 1612 1372" stroke-miterlimit="10"></path></g><g transform="translate(-470,-58) scale(1,1)"><path fill="none" stroke="#000000" d="M 1853 1372 L 1853 1382 L 1863 1382 L 1853 1372" stroke-miterlimit="10"></path></g><g transform="translate(-470,-58) scale(1,1)"><g><path fill="none" stroke="none"></path><text fill="#000000" stroke="none" font-family="Arial" font-size="13px" font-style="normal" font-weight="normal" text-decoration="none" x="1617" y="1390">Can interpret years with greater than four</text><text fill="#000000" stroke="none" font-family="Arial" font-size="13px" font-style="normal" font-weight="normal" text-decoration="none" x="1617" y="1403">digits, in standard or exponential form,</text><text fill="#000000" stroke="none" font-family="Arial" font-size="13px" font-style="normal" font-weight="normal" text-decoration="none" x="1617" y="1416">negative or positive, and with indicated</text><text fill="#000000" stroke="none" font-family="Arial" font-size="13px" font-style="normal" font-weight="normal" text-decoration="none" x="1617" y="1429">precision (e.g. "y170000000002",</text><text fill="#000000" stroke="none" font-family="Arial" font-size="13px" font-style="normal" font-weight="normal" text-decoration="none" x="1617" y="1442">"y17101e4p3").</text></g></g><g transform="translate(-470,-58) scale(1,1)"><path fill="none" stroke="#000000" d="M 1477 1445 L 1611 1428" stroke-miterlimit="10" stroke-dasharray="3"></path></g><g transform="translate(-470,-58) scale(1,1)"><rect fill="#C0C0C0" stroke="none" x="843" y="1764" width="307" height="115" opacity="0.2"></rect></g><g transform="translate(-470,-58) scale(1,1)"><rect fill="#ffffff" stroke="none" x="836" y="1757" width="307" height="115"></rect></g><g transform="translate(-470,-58) scale(1,1)"><path fill="none" stroke="#000000" d="M 836 1757 L 1143 1757 L 1143 1872 L 836 1872 L 836 1757 Z Z" stroke-miterlimit="10"></path></g><g transform="translate(-470,-58) scale(1,1)"><path fill="none" stroke="#000000" d="M 836 1782 L 1143 1782" stroke-miterlimit="10"></path></g><g transform="translate(-470,-58) scale(1,1)"><path fill="none" stroke="#000000" d="M 836 1835 L 1143 1835" stroke-miterlimit="10"></path></g><g transform="translate(-470,-58) scale(1,1)"><g><path fill="none" stroke="none"></path><text fill="#000000" stroke="none" font-family="Arial" font-size="13px" font-style="normal" font-weight="bold" text-decoration="none" x="904" y="1776.5">ShortFormExtendedDateTime</text></g></g><g transform="translate(-470,-58) scale(1,1)"><g><path fill="none" stroke="none"></path><text fill="#000000" stroke="none" font-family="Arial" font-size="13px" font-style="normal" font-weight="normal" text-decoration="none" x="841" y="1799.5">+Year: string</text></g></g><g transform="translate(-470,-58) scale(1,1)"><g><path fill="none" stroke="none"></path><text fill="#000000" stroke="none" font-family="Arial" font-size="13px" font-style="normal" font-weight="normal" text-decoration="none" x="841" y="1814.5">+Month: string</text></g></g><g transform="translate(-470,-58) scale(1,1)"><g><path fill="none" stroke="none"></path><text fill="#000000" stroke="none" font-family="Arial" font-size="13px" font-style="normal" font-weight="normal" text-decoration="none" x="841" y="1829.5">+Day: string</text></g></g><g transform="translate(-470,-58) scale(1,1)"><g><path fill="none" stroke="none"></path><text fill="#000000" stroke="none" font-family="Arial" font-size="13px" font-style="normal" font-weight="normal" text-decoration="none" x="841" y="1852.5">+ToExclusiveSet(): ExtendedDateTimeExclusiveSet</text></g></g><g transform="translate(-470,-58) scale(1,1)"><g><path fill="none" stroke="none"></path><text fill="#000000" stroke="none" font-family="Arial" font-size="13px" font-style="normal" font-weight="normal" text-decoration="none" x="841" y="1867.5">+ToString(): string</text></g></g><g transform="translate(-470,-58) scale(1,1)"><path fill="none" stroke="#000000" d="M 1038 1756 L 1130 1648" stroke-miterlimit="10"></path></g><g transform="translate(-470,-58) scale(1,1)"><path fill="#FFFFFF" stroke="none" d="M 1123.2286263020883 1668.9319969960638 L 1130 1648 L 1110.4107587205651 1658.0130727599517"></path></g><g transform="translate(-470,-58) scale(1,1)"><path fill="none" stroke="#000000" d="M 1123.2286263020883 1668.9319969960638 L 1130 1648 L 1110.4107587205651 1658.0130727599517 L 1123.2286263020883 1668.9319969960638" stroke-miterlimit="10"></path></g><g transform="translate(-470,-58) scale(1,1)"><path fill="none" stroke="#000000" d="M 835 1772 L 771 1754" stroke-miterlimit="10" stroke-dasharray="3"></path></g><g transform="translate(-470,-58) scale(1,1)"><path fill="#ffffff" stroke="none" d="M 612 1853 L 741 1853 L 751 1863 L 751 1920 L 612 1920 L 612 1853"></path></g><g transform="translate(-470,-58) scale(1,1)"><path fill="none" stroke="#000000" d="M 612 1853 L 741 1853 L 751 1863 L 751 1920 L 612 1920 L 612 1853 L 612 1853" stroke-miterlimit="10"></path></g><g transform="translate(-470,-58) scale(1,1)"><path fill="none" stroke="#000000" d="M 741 1853 L 741 1863 L 751 1863 L 741 1853" stroke-miterlimit="10"></path></g><g transform="translate(-470,-58) scale(1,1)"><g><path fill="none" stroke="none"></path><text fill="#000000" stroke="none" font-family="Arial" font-size="13px" font-style="normal" font-weight="normal" text-decoration="none" x="617" y="1871">This type handles</text><text fill="#000000" stroke="none" font-family="Arial" font-size="13px" font-style="normal" font-weight="normal" text-decoration="none" x="617" y="1884">both unspecified and</text><text fill="#000000" stroke="none" font-family="Arial" font-size="13px" font-style="normal" font-weight="normal" text-decoration="none" x="617" y="1897">masked dates. ('u' and</text><text fill="#000000" stroke="none" font-family="Arial" font-size="13px" font-style="normal" font-weight="normal" text-decoration="none" x="617" y="1910">'x').</text></g></g><g transform="translate(-470,-58) scale(1,1)"><path fill="none" stroke="#000000" d="M 753 1870 L 835 1851" stroke-miterlimit="10" stroke-dasharray="3"></path></g><g transform="translate(-470,-58) scale(1,1)"><path fill="#ffffff" stroke="none" d="M 1220 1925 L 1329 1925 L 1339 1935 L 1339 2008 L 1220 2008 L 1220 1925"></path></g><g transform="translate(-470,-58) scale(1,1)"><path fill="none" stroke="#000000" d="M 1220 1925 L 1329 1925 L 1339 1935 L 1339 2008 L 1220 2008 L 1220 1925 L 1220 1925" stroke-miterlimit="10"></path></g><g transform="translate(-470,-58) scale(1,1)"><path fill="none" stroke="#000000" d="M 1329 1925 L 1329 1935 L 1339 1935 L 1329 1925" stroke-miterlimit="10"></path></g><g transform="translate(-470,-58) scale(1,1)"><g><path fill="none" stroke="none"></path><text fill="#000000" stroke="none" font-family="Arial" font-size="13px" font-style="normal" font-weight="normal" text-decoration="none" x="1225" y="1943">Undefined = 0;</text></g></g><g transform="translate(-470,-58) scale(1,1)"><g><path fill="none" stroke="none"></path><text fill="#000000" stroke="none" font-family="Arial" font-size="13px" font-style="normal" font-weight="normal" text-decoration="none" x="1225" y="1958">Spring = 21;</text></g></g><g transform="translate(-470,-58) scale(1,1)"><g><path fill="none" stroke="none"></path><text fill="#000000" stroke="none" font-family="Arial" font-size="13px" font-style="normal" font-weight="normal" text-decoration="none" x="1225" y="1973">Summer = 22;</text></g></g><g transform="translate(-470,-58) scale(1,1)"><g><path fill="none" stroke="none"></path><text fill="#000000" stroke="none" font-family="Arial" font-size="13px" font-style="normal" font-weight="normal" text-decoration="none" x="1225" y="1988">Autumn = 23;</text></g></g><g transform="translate(-470,-58) scale(1,1)"><g><path fill="none" stroke="none"></path><text fill="#000000" stroke="none" font-family="Arial" font-size="13px" font-style="normal" font-weight="normal" text-decoration="none" x="1225" y="2003">Winter = 24;</text></g></g><g transform="translate(-470,-58) scale(1,1)"><path fill="none" stroke="#000000" d="M 1275 1924 L 1267 1858" stroke-miterlimit="10" stroke-dasharray="3"></path></g><g transform="translate(-470,-58) scale(1,1)"><path fill="#C0C0C0" stroke="none" d="M 1310 226.5 C 1310 220.1487248 1315.1487248 215 1321.5 215 C 1327.8512752 215 1333 220.1487248 1333 226.5 C 1333 232.8512752 1327.8512752 238 1321.5 238 C 1315.1487248 238 1310 232.8512752 1310 226.5 Z" opacity="0.2"></path></g><g transform="translate(-470,-58) scale(1,1)"><path fill="#ffffff" stroke="none" d="M 1303 219.5 C 1303 213.1487248 1308.1487248 208 1314.5 208 C 1320.8512752 208 1326 213.1487248 1326 219.5 C 1326 225.8512752 1320.8512752 231 1314.5 231 C 1308.1487248 231 1303 225.8512752 1303 219.5 Z"></path></g><g transform="translate(-470,-58) scale(1,1)"><path fill="none" stroke="#000000" d="M 1303 219.5 C 1303 213.1487248 1308.1487248 208 1314.5 208 C 1320.8512752 208 1326 213.1487248 1326 219.5 C 1326 225.8512752 1320.8512752 231 1314.5 231 C 1308.1487248 231 1303 225.8512752 1303 219.5 Z" stroke-miterlimit="10"></path></g><g transform="translate(-470,-58) scale(1,1)"><g><path fill="none" stroke="none"></path><text fill="#000000" stroke="none" font-family="Arial" font-size="13px" font-style="normal" font-weight="bold" text-decoration="none" x="1209" y="250.5">IExtendedDateTimeIndependentType</text></g></g><g transform="translate(-470,-58) scale(1,1)"><path fill="none" stroke="#000000" d="M 1454 624 L 1316.842105263158 231" stroke-miterlimit="10"></path></g><g transform="translate(-470,-58) scale(1,1)"><path fill="none" stroke="#000000" d="M 989 538 L 1305.4736842105262 231" stroke-miterlimit="10"></path></g><g transform="translate(-470,-58) scale(1,1)"><path fill="none" stroke="#000000" d="M 1312 207 L 1307 126" stroke-miterlimit="10"></path></g><g transform="translate(-470,-58) scale(1,1)"><path fill="#C0C0C0" stroke="none" d="M 1145 979.5 C 1145 973.1487248 1150.1487248 968 1156.5 968 C 1162.8512752 968 1168 973.1487248 1168 979.5 C 1168 985.8512752 1162.8512752 991 1156.5 991 C 1150.1487248 991 1145 985.8512752 1145 979.5 Z" opacity="0.2"></path></g><g transform="translate(-470,-58) scale(1,1)"><path fill="#ffffff" stroke="none" d="M 1138 972.5 C 1138 966.1487248 1143.1487248 961 1149.5 961 C 1155.8512752 961 1161 966.1487248 1161 972.5 C 1161 978.8512752 1155.8512752 984 1149.5 984 C 1143.1487248 984 1138 978.8512752 1138 972.5 Z"></path></g><g transform="translate(-470,-58) scale(1,1)"><path fill="none" stroke="#000000" d="M 1138 972.5 C 1138 966.1487248 1143.1487248 961 1149.5 961 C 1155.8512752 961 1161 966.1487248 1161 972.5 C 1161 978.8512752 1155.8512752 984 1149.5 984 C 1143.1487248 984 1138 978.8512752 1138 972.5 Z" stroke-miterlimit="10"></path></g><g transform="translate(-470,-58) scale(1,1)"><g><path fill="none" stroke="none"></path><text fill="#000000" stroke="none" font-family="Arial" font-size="13px" font-style="normal" font-weight="bold" text-decoration="none" x="1061" y="1003.5">ISingleExtendedDateTimeType</text></g></g><g transform="translate(-470,-58) scale(1,1)"><path fill="none" stroke="#000000" d="M 746 1140 L 1138 978.4307692307692" stroke-miterlimit="10"></path></g><g transform="translate(-470,-58) scale(1,1)"><path fill="none" stroke="#000000" d="M 1234 1291 L 1151.2105263157894 984" stroke-miterlimit="10"></path></g><g transform="translate(-470,-58) scale(1,1)"><path fill="#C0C0C0" stroke="none" d="M 1908.5 359.5 C 1908.5 353.1487248 1913.6487248 348 1920 348 C 1926.3512752 348 1931.5 353.1487248 1931.5 359.5 C 1931.5 365.8512752 1926.3512752 371 1920 371 C 1913.6487248 371 1908.5 365.8512752 1908.5 359.5 Z" opacity="0.2"></path></g><g transform="translate(-470,-58) scale(1,1)"><path fill="#ffffff" stroke="none" d="M 1901.5 352.5 C 1901.5 346.1487248 1906.6487248 341 1913 341 C 1919.3512752 341 1924.5 346.1487248 1924.5 352.5 C 1924.5 358.8512752 1919.3512752 364 1913 364 C 1906.6487248 364 1901.5 358.8512752 1901.5 352.5 Z"></path></g><g transform="translate(-470,-58) scale(1,1)"><path fill="none" stroke="#000000" d="M 1901.5 352.5 C 1901.5 346.1487248 1906.6487248 341 1913 341 C 1919.3512752 341 1924.5 346.1487248 1924.5 352.5 C 1924.5 358.8512752 1919.3512752 364 1913 364 C 1906.6487248 364 1901.5 358.8512752 1901.5 352.5 Z" stroke-miterlimit="10"></path></g><g transform="translate(-470,-58) scale(1,1)"><g><path fill="none" stroke="none"></path><text fill="#000000" stroke="none" font-family="Arial" font-size="13px" font-style="normal" font-weight="bold" text-decoration="none" x="1832.5" y="383.5">IExtendedDateTimeSetType</text></g></g><g transform="translate(-470,-58) scale(1,1)"><path fill="none" stroke="#000000" d="M 1824 972 L 1471.842105263158 648" stroke-miterlimit="10"></path></g><g transform="translate(-470,-58) scale(1,1)"><path fill="none" stroke="#000000" d="M 1503 624 L 1901.5 362.925" stroke-miterlimit="10"></path></g><g transform="translate(-470,-58) scale(1,1)"><path fill="none" stroke="#000000" d="M 2052 576 L 1918.0526315789473 364" stroke-miterlimit="10"></path></g><g transform="translate(-470,-58) scale(1,1)"><path fill="none" stroke="#000000" d="M 1172 960 L 1455.7368421052631 648" stroke-miterlimit="10"></path></g><g transform="translate(-470,-58) scale(1,1)"><path fill="#ffffff" stroke="none" d="M 2228 385 L 2453 385 L 2463 395 L 2463 448 L 2228 448 L 2228 385"></path></g><g transform="translate(-470,-58) scale(1,1)"><path fill="none" stroke="#000000" d="M 2228 385 L 2453 385 L 2463 395 L 2463 448 L 2228 448 L 2228 385 L 2228 385" stroke-miterlimit="10"></path></g><g transform="translate(-470,-58) scale(1,1)"><path fill="none" stroke="#000000" d="M 2453 385 L 2453 395 L 2463 395 L 2453 385" stroke-miterlimit="10"></path></g><g transform="translate(-470,-58) scale(1,1)"><g><path fill="none" stroke="none"></path><text fill="#000000" stroke="none" font-family="Arial" font-size="13px" font-style="normal" font-weight="normal" text-decoration="none" x="2233" y="403">This interface exists because a range</text><text fill="#000000" stroke="none" font-family="Arial" font-size="13px" font-style="normal" font-weight="normal" text-decoration="none" x="2233" y="416">cannot exist outside of a set.</text></g></g><g transform="translate(-470,-58) scale(1,1)"><path fill="none" stroke="#000000" d="M 2227 403 L 2007 376" stroke-miterlimit="10" stroke-dasharray="3"></path></g><g transform="translate(-470,-58) scale(1,1)"><path fill="#ffffff" stroke="none" d="M 872 789 L 1145 789 L 1155 799 L 1155 835 L 872 835 L 872 789"></path></g><g transform="translate(-470,-58) scale(1,1)"><path fill="none" stroke="#000000" d="M 872 789 L 1145 789 L 1155 799 L 1155 835 L 872 835 L 872 789 L 872 789" stroke-miterlimit="10"></path></g><g transform="translate(-470,-58) scale(1,1)"><path fill="none" stroke="#000000" d="M 1145 789 L 1145 799 L 1155 799 L 1145 789" stroke-miterlimit="10"></path></g><g transform="translate(-470,-58) scale(1,1)"><g><path fill="none" stroke="none"></path><text fill="#000000" stroke="none" font-family="Arial" font-size="13px" font-style="normal" font-weight="normal" text-decoration="none" x="877" y="807">This interface exists to disallow ranges</text><text fill="#000000" stroke="none" font-family="Arial" font-size="13px" font-style="normal" font-weight="normal" text-decoration="none" x="877" y="820">between sets of multiple date/times.</text></g></g><g transform="translate(-470,-58) scale(1,1)"><path fill="none" stroke="#000000" d="M 1034 837 L 1129 960" stroke-miterlimit="10" stroke-dasharray="3"></path></g></g></svg>